<svg xmlns="http://www.w3.org/2000/svg" viewBox="0 0 16 16" fill="none" stroke="currentColor" stroke-width="1.4" stroke-linecap="round" stroke-linejoin="round">
  <path d="M8 1.5C4.41 1.5 1.5 4.41 1.5 8c0 2.87 1.86 5.31 4.44 6.17.32.06.44-.14.44-.31 0-.15-.01-.66-.01-1.2-1.81.33-2.28-.44-2.42-.84-.08-.21-.43-.84-.74-1.01-.25-.14-.61-.47-.01-.48.57-.01.97.52 1.11.74.65 1.09 1.69.78 2.11.6.06-.47.25-.78.46-.96-1.6-.18-3.28-.8-3.28-3.55 0-.78.28-1.43.74-1.93-.07-.18-.32-.92.07-1.91 0 0 .6-.19 1.98.74A6.68 6.68 0 0 1 8 4.65c.6 0 1.21.08 1.77.24 1.38-.94 1.98-.74 1.98-.74.39.99.15 1.73.07 1.91.46.5.74 1.14.74 1.93 0 2.76-1.68 3.37-3.29 3.55.26.22.49.66.49 1.34 0 .97-.01 1.74-.01 1.98 0 .17.12.38.45.31A6.51 6.51 0 0 0 14.5 8c0-3.59-2.91-6.5-6.5-6.5Z"></path>
</svg>