<svg xmlns="http://www.w3.org/2000/svg" viewBox="0 0 16 16" fill="none" stroke="currentColor" stroke-width="1.3" stroke-linecap="round" stroke-linejoin="round">
  
  <path d="M3 3.2 L3.6 7.3 L5.8 5.6 Z"></path>
  
  <path d="M13 3.2 L12.4 7.3 L10.2 5.6 Z"></path>
  
  <path d="M3.6 7.3 C 3 9.8, 4.4 12.3, 6.6 12.8 C 7.6 13, 8.4 13, 9.4 12.8 C 11.6 12.3, 13 9.8, 12.4 7.3"></path>
  
  <circle cx="6.4" cy="9" r="0.55" fill="currentColor" stroke="none"></circle>
  <circle cx="9.6" cy="9" r="0.55" fill="currentColor" stroke="none"></circle>
  
  <path d="M7.4 10.6 L8 11.2 L8.6 10.6"></path>
  
  <path d="M5.4 10.4 L3.2 10"></path>
  <path d="M5.4 10.9 L3.4 11.2"></path>
  <path d="M10.6 10.4 L12.8 10"></path>
  <path d="M10.6 10.9 L12.6 11.2"></path>
</svg>